<svg xmlns="http://www.w3.org/2000/svg" width="14.833" height="19.7" viewBox="117.35 83.85 14.833 19.7"><g data-name="Group 134"><path d="M123.45 93.515a4.831 4.831 0 0 1-4.826-4.826 4.832 4.832 0 0 1 4.826-4.825 4.831 4.831 0 0 1 4.825 4.825 4.831 4.831 0 0 1-4.825 4.826Zm0-9.106c-2.36 0-4.28 1.92-4.28 4.28 0 2.36 1.92 4.28 4.28 4.28 2.36 0 4.28-1.92 4.28-4.28 0-2.36-1.92-4.28-4.28-4.28Z" fill="#fff" fill-rule="evenodd" data-name="Path 58"/><path d="M125.963 103.53h-8.32a.272.272 0 0 1-.272-.272v-4.092a6.203 6.203 0 0 1 6.195-6.197 6.17 6.17 0 0 1 5.535 3.41.273.273 0 0 1-.486.246 5.628 5.628 0 0 0-5.049-3.11 5.657 5.657 0 0 0-5.65 5.65v3.82h8.047a.273.273 0 1 1 0 .545Z" fill="#fff" fill-rule="evenodd" data-name="Path 59"/><g data-name="Group 67"><path d="M131.892 101.127h-4.806a.273.273 0 1 1 0-.545h4.806a.273.273 0 1 1 0 .545Z" fill="#fff" fill-rule="evenodd" data-name="Path 60"/><path d="M129.489 103.53a.273.273 0 0 1-.272-.272v-4.807a.273.273 0 0 1 .545 0v4.807c0 .15-.123.273-.273.273Z" fill="#fff" fill-rule="evenodd" data-name="Path 61"/></g></g></svg>