<svg xmlns="http://www.w3.org/2000/svg" width="14.7" height="15.933" viewBox="188.767 335.433 14.7 15.933"><g data-name="Group 566"><g data-name="Group 191"><g data-name="Group 185"><path d="M192.96 340.328v5.089h.61v-4.566h5.089v4.566h.61v-5.089h-6.31Z" fill="#ff6501" fill-rule="evenodd" data-name="Path 180"/></g><g data-name="Group 186"><path d="M188.78 342.014h14.669v9.336H188.78v-9.336z" fill="#ff6501" fill-rule="evenodd" data-name="Rectangle 241"/></g><g data-name="Group 187"><path d="M189.497 342.707h13.132v7.95h-13.132v-7.95z" fill="#ff7f2c" fill-rule="evenodd" data-name="Rectangle 242"/></g><g data-name="Group 190"><g data-name="Group 188"><path d="M189.71 341.725h1.968v.857h-1.968v-.857z" fill="#ff7f2c" fill-rule="evenodd" data-name="Rectangle 243"/></g><g data-name="Group 189"><path d="M200.551 341.725h1.968v.857h-1.968v-.857z" fill="#ff7f2c" fill-rule="evenodd" data-name="Rectangle 244"/></g></g></g><path d="m198.298 336.592-3.906.053-.456 4.87h.946v-.578h.176v.578h.91v-.578h.176v.578h.91v-.578h.176v.578h.858l.158-1.191h.788l-.736-3.732Z" fill="#ff7f2c" fill-rule="evenodd" data-name="Path 181"/><path d="M196.582 336.616v4.9h.473v-.58h.175v.58h.858l.158-1.192h.788l-.736-3.732-1.716.024Z" fill="#ff6501" fill-rule="evenodd" data-name="Path 182"/><path d="M194.392 335.827h3.965v.818h-3.965v-.818z" fill="#353f49" fill-rule="evenodd" data-name="Rectangle 245"/><g data-name="Group 199"><g data-name="Group 192"><path d="M197.11 336.204a.75.75 0 1 1-1.5 0 .75.75 0 0 1 1.5 0Z" fill="#353f49" fill-rule="evenodd" data-name="Path 183"/></g><g data-name="Group 193"><path d="M197.06 336.204a.7.7 0 1 1-1.4 0 .7.7 0 0 1 1.4 0Z" fill="#ffdb7a" fill-rule="evenodd" data-name="Path 184"/></g><g data-name="Group 194"><path d="M197.017 336.204a.657.657 0 1 1-1.313 0 .657.657 0 0 1 1.313 0Z" fill="#feca5c" fill-rule="evenodd" data-name="Path 185"/></g><g data-name="Group 195"><path d="M196.941 336.204a.581.581 0 1 1-1.162 0 .581.581 0 0 1 1.162 0Z" fill="#fff" fill-rule="evenodd" data-name="Path 186"/></g><g data-name="Group 197"><g data-name="Group 196"><path d="m196.36 336.252-.29-.167.027-.047.263.152.381-.228.027.046-.408.244Z" fill="#353f49" fill-rule="evenodd" data-name="Path 187"/></g></g><g data-name="Group 198"><path d="M196.434 336.204a.074.074 0 1 1-.148 0 .074.074 0 0 1 .148 0Z" fill="#f77b55" fill-rule="evenodd" data-name="Path 188"/></g></g></g></svg>