<svg xmlns="http://www.w3.org/2000/svg" width="20" height="27.433" viewBox="326.567 650.567 20 27.433"><path d="M342.47 677.984a4.07 4.07 0 0 1-1.26-.2 4.042 4.042 0 0 1-2.37-2.021l-8.532-16.712a2.829 2.829 0 0 1-.174-2.17 2.826 2.826 0 0 1 1.414-1.657 2.829 2.829 0 0 1 2.17-.173 2.828 2.828 0 0 1 1.657 1.413l6.99 13.692a.389.389 0 0 1-.693.354l-6.99-13.692a2.053 2.053 0 0 0-1.204-1.027 2.052 2.052 0 0 0-1.577.126 2.05 2.05 0 0 0-1.026 1.203 2.053 2.053 0 0 0 .125 1.577l8.533 16.712a3.274 3.274 0 0 0 1.917 1.636c.837.27 1.73.2 2.513-.2a3.271 3.271 0 0 0 1.635-1.918c.271-.837.2-1.73-.2-2.512l-9.493-18.596a4.524 4.524 0 0 0-6.08-1.97 4.524 4.524 0 0 0-1.97 6.08l8.019 15.707a.39.39 0 0 1-.694.354l-8.018-15.706a5.304 5.304 0 0 1 2.309-7.127 5.304 5.304 0 0 1 7.126 2.309l9.494 18.594c.495.969.582 2.072.247 3.106a4.041 4.041 0 0 1-2.021 2.371 4.048 4.048 0 0 1-1.847.447Z" fill="#272525" fill-rule="evenodd" data-name="Path 56"/></svg>