<svg xmlns="http://www.w3.org/2000/svg" width="16.017" height="13.083" viewBox="126.267 118.35 16.017 13.083"><g data-name="Group 150"><path d="M142.047 131.427h-15.542a.219.219 0 0 1-.22-.219v-11.512c0-.121.098-.22.22-.22h15.542a.22.22 0 0 1 .219.22v11.512a.219.219 0 0 1-.22.22Zm-15.324-.438h15.105v-11.075h-15.105v11.075Z" fill="#fff" fill-rule="evenodd" data-name="Path 10"/><path d="M133.755 130.19a4.223 4.223 0 0 1-4.218-4.218 4.223 4.223 0 0 1 4.218-4.218 4.223 4.223 0 0 1 4.22 4.218 4.223 4.223 0 0 1-4.22 4.219Zm0-7.998a3.785 3.785 0 0 0-3.78 3.78 3.785 3.785 0 0 0 3.78 3.78 3.785 3.785 0 0 0 3.781-3.78 3.785 3.785 0 0 0-3.78-3.78Z" fill="#fff" fill-rule="evenodd" data-name="Path 11"/><path d="M130.723 118.803h-3.21a.219.219 0 1 1 0-.438h3.21a.219.219 0 1 1 0 .438Z" fill="#fff" fill-rule="evenodd" data-name="Path 12"/><path d="M140.92 122.48h-2.736a.219.219 0 0 1-.219-.22v-1.368c0-.121.098-.22.219-.22h2.736c.121 0 .22.099.22.22v1.368c0 .121-.099.22-.22.22Zm-2.517-.439h2.298v-.93h-2.298v.93Z" fill="#fff" fill-rule="evenodd" data-name="Path 13"/></g></svg>