<svg xmlns="http://www.w3.org/2000/svg" width="33.533" height="32.7" viewBox="101.983 530.983 33.533 32.7"><g data-name="Group 61"><path d="M109.54 563.662a.456.456 0 0 1-.455-.455l-.001-6.148h-6.628a.456.456 0 0 1-.456-.456V534.57c0-.251.204-.455.456-.455h28.58c.252 0 .456.204.456.455v22.033a.456.456 0 0 1-.456.456h-14.113l-7.076 6.483a.457.457 0 0 1-.308.12Zm-6.63-7.515h6.63c.251 0 .455.204.455.456v5.568l6.443-5.904a.458.458 0 0 1 .308-.12h13.835v-21.122h-27.67v21.122Z" fill="#ff6501" fill-rule="evenodd" data-name="Path 48"/><path d="M135.045 554.707h-4.009a.456.456 0 0 1 0-.912h3.553v-21.884h-27.668v2.66a.455.455 0 0 1-.912 0v-3.116c0-.251.204-.455.456-.455h28.58c.252 0 .455.204.455.455v22.796a.455.455 0 0 1-.455.456Z" fill="#ff6501" fill-rule="evenodd" data-name="Path 49"/><path d="M127.961 561.31a.456.456 0 0 1-.307-.12l-4.64-4.251a.456.456 0 1 1 .615-.672l3.877 3.552v-3.216a.455.455 0 0 1 .91 0v4.252a.456.456 0 0 1-.455.455Z" fill="#ff6501" fill-rule="evenodd" data-name="Path 50"/><path d="M126.823 541.196h-20.358a.455.455 0 1 1 0-.912h20.358a.456.456 0 0 1 0 .912Z" fill="#ff6501" fill-rule="evenodd" data-name="Path 51"/><path d="M126.823 545.27h-20.358a.455.455 0 1 1 0-.912h20.358a.456.456 0 1 1 0 .911Z" fill="#ff6501" fill-rule="evenodd" data-name="Path 52"/><path d="M114.6 549.344h-8.135a.455.455 0 1 1 0-.911h8.135a.455.455 0 1 1 0 .91Z" fill="#ff6501" fill-rule="evenodd" data-name="Path 53"/></g></svg>