<svg xmlns="http://www.w3.org/2000/svg" width="24.567" height="24.567" viewBox="180.267 274.267 24.567 24.567"><g data-name="Group 56"><g data-name="Path 34"><path d="M192.56 298.122c-6.374 0-11.56-5.186-11.56-11.561S186.186 275 192.56 275c6.376 0 11.562 5.186 11.562 11.56 0 6.376-5.186 11.562-11.561 11.562Zm0-22.495c-6.028 0-10.932 4.905-10.932 10.934 0 6.029 4.904 10.933 10.933 10.933s10.933-4.904 10.933-10.933-4.904-10.934-10.933-10.934Z" fill="#ff6501" fill-rule="evenodd"/><path d="M192.56 298.122c-6.374 0-11.56-5.186-11.56-11.561S186.186 275 192.56 275c6.376 0 11.562 5.186 11.562 11.56 0 6.376-5.186 11.562-11.561 11.562Zm0-22.495c-6.028 0-10.932 4.905-10.932 10.934 0 6.029 4.904 10.933 10.933 10.933s10.933-4.904 10.933-10.933-4.904-10.934-10.933-10.934Z" stroke-linejoin="round" stroke-linecap="round" stroke="#ff6501" fill="transparent"/></g><g data-name="Path 35"><path d="M188.995 291.574a.315.315 0 0 1-.214-.085l-2.578-2.413a.314.314 0 1 1 .43-.458l2.356 2.206 9.174-9.115a.314.314 0 1 1 .442.445l-9.388 9.329a.313.313 0 0 1-.222.09Z" fill="#ff6501" fill-rule="evenodd"/><path d="M188.995 291.574a.315.315 0 0 1-.214-.085l-2.578-2.413a.314.314 0 1 1 .43-.458l2.356 2.206 9.174-9.115a.314.314 0 1 1 .442.445l-9.388 9.329a.313.313 0 0 1-.222.09Z" stroke-linejoin="round" stroke-linecap="round" stroke="#ff6501" fill="transparent"/></g></g></svg>