<svg xmlns="http://www.w3.org/2000/svg" width="11.733" height="14.817" viewBox="189.65 615.833 11.733 14.817"><g data-name="Group 564"><path d="M191.507 625.733h8.097l1.37 1.783v3.103h-10.9v-2.905l1.433-1.98Z" fill="#1e1e4f" fill-rule="evenodd" data-name="Path 408"/><path d="M198.44 625.733h-6.933l-1.434 1.981v2.905h9.737v-3.103l-1.37-1.783Z" fill="#17173c" fill-rule="evenodd" data-name="Path 409"/><path d="M193.969 622.101h3.11v3.649l-1.553 1.27-1.557-1.27V622.1Z" fill="#2b2b5a" fill-rule="evenodd" data-name="Path 410"/><path d="m195.82 627.74-.284-.464v-.04l-.012.02-.013-.02v.04l-.285.464-.656 2.89h1.907l-.656-2.89Z" fill="#222256" fill-rule="evenodd" data-name="Path 411"/><path d="M196.113 627.607a.582.582 0 1 1-1.164 0 .582.582 0 0 1 1.164 0Z" fill="#2d2d73" fill-rule="evenodd" data-name="Path 412"/><path d="m195.526 627.02-1.557-1.287h-1.282l1.75 2.303 1.09-1.015Z" fill="#f2f2f2" fill-rule="evenodd" data-name="Path 413"/><path d="m195.526 627.02 1.558-1.287h1.282l-1.75 2.303-1.09-1.015Z" fill="#f2f2f2" fill-rule="evenodd" data-name="Path 414"/><path d="M194.652 622.101h-.683v3.649l.683.557V622.1Z" fill="#5c5c7a" fill-rule="evenodd" data-name="Path 415"/><g data-name="Group 563"><g data-name="Group 556"><path d="M189.666 615.848h11.715v8.698h-11.715v-8.698z" fill="#17173c" fill-rule="evenodd" data-name="Rectangle 295"/></g><g data-name="Group 557"><path d="M190.094 616.317h10.797v7.925h-10.797v-7.925z" fill="#17173c" fill-rule="evenodd" data-name="Rectangle 296"/></g><g data-name="Group 558"><path d="M189.959 615.977h5.08v8.026h-5.08v-8.026z" fill="#f2f2f2" fill-rule="evenodd" data-name="Rectangle 297"/></g><g data-name="Group 559"><path d="M195.996 615.977h5.081v8.026h-5.08v-8.026z" fill="#f2f2f2" fill-rule="evenodd" data-name="Rectangle 298"/></g><g data-name="Group 560"><path d="m195.002 624.003.497.156v-7.952l-.46-.23-.037 8.026Z" fill="#cdccca" fill-rule="evenodd" data-name="Path 416"/></g><g data-name="Group 561"><path d="m195.996 624.003-.497.156v-7.952l.497-.23v8.026Z" fill="#f2f2f2" fill-rule="evenodd" data-name="Path 417"/></g><path d="M190.563 618.21h3.603v.136h-3.603v-.136z" fill="#cdccca" fill-rule="evenodd" data-name="Rectangle 299"/><path d="M190.563 619.497h3.603v.137h-3.603v-.137z" fill="#cdccca" fill-rule="evenodd" data-name="Rectangle 300"/><path d="M190.563 620.785h3.603v.136h-3.603v-.136z" fill="#cdccca" fill-rule="evenodd" data-name="Rectangle 301"/><path d="M196.853 618.21h3.603v.136h-3.603v-.136z" fill="#cdccca" fill-rule="evenodd" data-name="Rectangle 302"/><path d="M196.853 619.497h3.603v.137h-3.603v-.137z" fill="#cdccca" fill-rule="evenodd" data-name="Rectangle 303"/><path d="M196.853 620.785h3.603v.136h-3.603v-.136z" fill="#cdccca" fill-rule="evenodd" data-name="Rectangle 304"/><g data-name="Group 562"><path d="m195.99 624.003-.497.156v-7.952l.46-.23.037 8.026Z" fill="#fff" fill-rule="evenodd" data-name="Path 418"/></g></g><path d="m195.526 627.02-1.089 1.016-.84-1.107.866.806 1.063-.714Z" fill="#fff" fill-rule="evenodd" data-name="Path 419"/><path d="m195.533 627.02 1.089 1.016.84-1.107-.866.806-1.063-.714Z" fill="#fff" fill-rule="evenodd" data-name="Path 420"/></g></svg>