<svg xmlns="http://www.w3.org/2000/svg" width="19.917" height="14.933" viewBox="274.5 335.367 19.917 14.933"><g data-name="Group 565"><g data-name="Group 163"><g data-name="Group 160"><g data-name="Group 158"><path d="M286.406 338.017a.972.972 0 1 1-1.943 0 .972.972 0 0 1 1.943 0Z" fill="#ff6501" fill-rule="evenodd" data-name="Path 154"/></g><g data-name="Group 159"><path d="M286.147 338.017a.713.713 0 1 1-1.425 0 .713.713 0 0 1 1.425 0Z" fill="#ff6501" fill-rule="evenodd" data-name="Path 155"/></g></g><g data-name="Group 162"><g data-name="Group 161"><path d="M285.789 338.2a.223.223 0 0 1-.081.181.402.402 0 0 1-.227.082v.144h-.097v-.142a.78.78 0 0 1-.302-.06v-.187c.04.02.09.039.148.054.057.016.109.025.154.028v-.22l-.048-.017a.525.525 0 0 1-.197-.12.228.228 0 0 1-.059-.16c0-.068.027-.124.08-.168a.407.407 0 0 1 .224-.08v-.108h.097v.105a.802.802 0 0 1 .291.065l-.066.165a.757.757 0 0 0-.225-.055v.208c.091.035.156.066.195.092a.27.27 0 0 1 .086.085c.018.031.027.068.027.109Zm-.496-.417c0 .021.007.038.021.052a.256.256 0 0 0 .07.04v-.165c-.06.009-.091.034-.091.073Zm.283.428a.063.063 0 0 0-.024-.05.292.292 0 0 0-.071-.042v.176c.063-.011.095-.039.095-.084Z" fill="#ff7f2c" fill-rule="evenodd" data-name="Path 156"/></g></g></g><g data-name="Group 169"><g data-name="Group 166"><g data-name="Group 164"><path d="M285.04 336.356a.972.972 0 1 1-1.944 0 .972.972 0 0 1 1.943 0Z" fill="#ff6501" fill-rule="evenodd" data-name="Path 157"/></g><g data-name="Group 165"><path d="M284.78 336.356a.713.713 0 1 1-1.425 0 .713.713 0 0 1 1.425 0Z" fill="#ff6501" fill-rule="evenodd" data-name="Path 158"/></g></g><g data-name="Group 168"><g data-name="Group 167"><path d="M284.422 336.54a.223.223 0 0 1-.082.18.405.405 0 0 1-.227.082v.144h-.096v-.142a.792.792 0 0 1-.302-.06v-.187c.04.02.09.039.148.054a.78.78 0 0 0 .154.028v-.22l-.048-.018a.53.53 0 0 1-.197-.12.23.23 0 0 1-.059-.159c0-.068.027-.124.08-.168a.407.407 0 0 1 .224-.08v-.108h.096v.105a.81.81 0 0 1 .292.065l-.066.165a.765.765 0 0 0-.226-.055v.208c.092.035.157.066.196.092a.271.271 0 0 1 .085.085.21.21 0 0 1 .028.109Zm-.496-.418c0 .02.007.038.021.051a.25.25 0 0 0 .07.042v-.166c-.061.009-.091.033-.091.073Zm.283.428a.063.063 0 0 0-.024-.05.296.296 0 0 0-.072-.042v.176c.064-.011.096-.039.096-.084Z" fill="#ff7f2c" fill-rule="evenodd" data-name="Path 159"/></g></g></g><g data-name="Group 170"><path d="M287.006 341.299c-1.405-.894-1.466-1.718-.662-1.956 1.197-.354 1.334-1.167 1.334-1.167s-1.227.174-1.855.163c-.3-.005-2.544-.005-2.844 0-.629.011-1.856-.163-1.856-.163s.138.813 1.334 1.167c.805.238.744 1.062-.662 1.956-1.406.893-3.414 3.857-1.807 6.658.964 1.681 3.6 1.744 4.413 1.744.813 0 3.448-.063 4.413-1.744 1.607-2.8-.402-5.765-1.808-6.658Z" fill="#ff7f2c" fill-rule="evenodd" data-name="Path 160"/></g><g data-name="Group 176"><g data-name="Group 173"><g data-name="Group 171"><path d="M284.1 338.344a.972.972 0 1 1-1.942 0 .972.972 0 0 1 1.943 0Z" fill="#ff6501" fill-rule="evenodd" data-name="Path 161"/></g><g data-name="Group 172"><path d="M282.417 338.244a.713.713 0 1 1 0 .1z" fill="#ff6501" fill-rule="evenodd" data-name="Ellipse 45"/></g></g><g data-name="Group 175"><g data-name="Group 174"><path d="M283.483 338.527a.223.223 0 0 1-.081.181.405.405 0 0 1-.227.081v.145h-.097v-.142a.785.785 0 0 1-.302-.06v-.187c.041.02.09.038.148.054a.774.774 0 0 0 .154.027v-.218l-.047-.019a.522.522 0 0 1-.198-.12.23.23 0 0 1-.058-.16c0-.067.027-.123.08-.167a.407.407 0 0 1 .223-.08v-.108h.097v.105a.799.799 0 0 1 .292.065l-.066.165a.757.757 0 0 0-.226-.055v.208c.092.035.157.066.196.092a.267.267 0 0 1 .085.085.21.21 0 0 1 .027.108Zm-.496-.417c0 .02.007.038.022.051a.267.267 0 0 0 .07.042v-.166c-.061.008-.092.033-.092.073Zm.284.428a.063.063 0 0 0-.024-.05.312.312 0 0 0-.072-.042v.176c.064-.011.096-.04.096-.084Z" fill="#ff7f2c" fill-rule="evenodd" data-name="Path 162"/></g></g></g><g data-name="Group 177"><path d="M282.79 339.95h3.222v.242h-3.223v-.241z" fill="#f2f2f2" fill-rule="evenodd" data-name="Rectangle 240"/></g><g data-name="Group 179"><g data-name="Group 178"><path d="M285.906 345.664c0 .31-.112.557-.335.744-.224.188-.536.3-.939.337v.598h-.399v-.586c-.474-.01-.89-.093-1.247-.25v-.77c.169.084.373.157.61.221.238.064.45.102.637.114v-.903l-.195-.076c-.385-.152-.657-.316-.818-.494a.95.95 0 0 1-.24-.66.86.86 0 0 1 .33-.695c.221-.182.529-.292.923-.33v-.447h.4v.435c.444.019.846.109 1.205.268l-.273.682a3.148 3.148 0 0 0-.933-.228v.86c.38.146.649.272.81.379.16.107.277.224.351.352a.873.873 0 0 1 .113.449Zm-2.049-1.725c0 .085.03.156.09.211.059.055.154.112.286.17v-.684c-.25.037-.376.138-.376.303Zm1.171 1.768a.261.261 0 0 0-.099-.206 1.285 1.285 0 0 0-.297-.175v.726c.265-.045.396-.16.396-.345Z" fill="#ff6501" fill-rule="evenodd" data-name="Path 163"/></g></g><g data-name="Group 181"><g data-name="Group 180"><path d="M278.73 350.277c-1.532-1.48-2.376-3.456-2.376-5.561 0-1.944.735-3.808 2.069-5.248l.107.1a7.56 7.56 0 0 0-2.029 5.148c0 2.065.827 4.003 2.33 5.456l-.102.105Z" fill="#ff7f2c" fill-rule="evenodd" data-name="Path 164"/></g><path d="M276.511 347.66c.366.117.853.764.853.764s-.805.355-1.171.239c-.366-.117-.995-.927-.995-.927s.947-.191 1.313-.075Z" fill="#ff7f2c" fill-rule="evenodd" data-name="Path 165"/><path d="M278.336 347.868c-.231.307-1.002.552-1.002.552s-.068-.877.163-1.184c.231-.307 1.204-.63 1.204-.63s-.133.955-.365 1.262Z" fill="#ff7f2c" fill-rule="evenodd" data-name="Path 166"/><path d="M275.812 344.495c.331.195.66.935.66.935s-.863.166-1.194-.03c-.331-.196-.762-1.127-.762-1.127s.966.027 1.296.222Z" fill="#ff7f2c" fill-rule="evenodd" data-name="Path 167"/><path d="M277.545 345.107c-.295.247-1.101.312-1.101.312s.13-.87.424-1.117c.295-.247 1.316-.344 1.316-.344s-.345.902-.64 1.149Z" fill="#ff7f2c" fill-rule="evenodd" data-name="Path 168"/><path d="M276.674 341.165c.217.318.2 1.127.2 1.127s-.852-.218-1.068-.535c-.217-.318-.211-1.343-.211-1.343s.863.433 1.08.751Z" fill="#ff7f2c" fill-rule="evenodd" data-name="Path 169"/><path d="M277.982 342.455c-.371.099-1.13-.185-1.13-.185s.489-.732.86-.83c.372-.1 1.337.246 1.337.246s-.695.67-1.067.769Z" fill="#ff7f2c" fill-rule="evenodd" data-name="Path 170"/><path d="M279.102 339.46c-.238.303-1.014.53-1.014.53s-.05-.878.188-1.18c.238-.302 1.218-.604 1.218-.604s-.154.953-.392 1.255Z" fill="#ff7f2c" fill-rule="evenodd" data-name="Path 171"/></g><g data-name="Group 183"><g data-name="Group 182"><path d="M290.179 350.277c1.531-1.48 2.374-3.456 2.374-5.561a7.706 7.706 0 0 0-2.068-5.248l-.107.1a7.56 7.56 0 0 1 2.029 5.148c0 2.065-.828 4.003-2.33 5.456l.102.105Z" fill="#ff6501" fill-rule="evenodd" data-name="Path 172"/></g><path d="M292.397 347.66c-.367.117-.853.764-.853.764s.805.355 1.17.239c.367-.117.996-.927.996-.927s-.947-.191-1.313-.075Z" fill="#ff6501" fill-rule="evenodd" data-name="Path 173"/><path d="M290.572 347.868c.23.307 1.002.552 1.002.552s.068-.877-.163-1.184c-.231-.307-1.204-.63-1.204-.63s.133.955.365 1.262Z" fill="#ff6501" fill-rule="evenodd" data-name="Path 174"/><path d="M293.096 344.495c-.331.195-.66.935-.66.935s.863.166 1.194-.03c.331-.196.762-1.127.762-1.127s-.966.027-1.296.222Z" fill="#ff6501" fill-rule="evenodd" data-name="Path 175"/><path d="M291.363 345.107c.295.247 1.101.312 1.101.312s-.13-.87-.425-1.117c-.294-.247-1.315-.344-1.315-.344s.345.902.64 1.149Z" fill="#ff6501" fill-rule="evenodd" data-name="Path 176"/><path d="M292.234 341.165c-.217.318-.201 1.127-.201 1.127s.853-.218 1.07-.535c.215-.318.21-1.343.21-1.343s-.863.433-1.08.751Z" fill="#ff6501" fill-rule="evenodd" data-name="Path 177"/><path d="M290.926 342.455c.371.099 1.129-.185 1.129-.185s-.488-.732-.86-.83c-.37-.1-1.336.246-1.336.246s.695.67 1.067.769Z" fill="#ff6501" fill-rule="evenodd" data-name="Path 178"/><path d="M289.806 339.46c.238.303 1.014.53 1.014.53s.05-.878-.188-1.18c-.238-.302-1.218-.604-1.218-.604s.154.953.392 1.255Z" fill="#ff6501" fill-rule="evenodd" data-name="Path 179"/></g></g></svg>