<svg xmlns="http://www.w3.org/2000/svg" width="18.75" height="17.75" viewBox="187.583 525.683 18.75 17.75"><g data-name="Group 549"><g data-name="Group 527"><g data-name="Group 526"><path d="M187.606 540.233h3.434v2.99h-3.434v-2.99z" fill="#ff6501" fill-rule="evenodd" data-name="Rectangle 268"/></g></g><g data-name="Group 529"><g data-name="Group 528"><path d="M201.266 537.907h3.434v5.317h-3.434v-5.317z" fill="#ff7f2c" fill-rule="evenodd" data-name="Rectangle 269"/></g></g><g data-name="Group 531"><g data-name="Group 530"><path d="M191.026 535.452h3.434v7.772h-3.434v-7.772z" fill="#ff7f2c" fill-rule="evenodd" data-name="Rectangle 270"/></g></g><g data-name="Group 533"><g data-name="Group 532"><path d="M197.864 533.1h3.433v10.163h-3.433V533.1z" fill="#ff6501" fill-rule="evenodd" data-name="Rectangle 271"/></g></g><g data-name="Group 535"><g data-name="Group 534"><path d="M194.447 529.846h3.433v13.378h-3.433v-13.378z" fill="#fc6d10" fill-rule="evenodd" data-name="Rectangle 272"/></g></g><path d="m196.163 526.033-2.878 4.986h5.758l-2.88-4.986Z" fill="#ff6501" fill-rule="evenodd" data-name="Path 386"/><g data-name="Group 536"><path d="M195.17 540.034h2.084v2.084h-2.084v-2.084z" fill="#ff7f2c" fill-rule="evenodd" data-name="Rectangle 273"/></g><g data-name="Group 538"><g data-name="Group 537"><path d="m196.137 541.554-.5-.473.124-.132.36.34.496-.602.14.115-.62.752Z" fill="#fff" fill-rule="evenodd" data-name="Path 387"/></g></g><path d="M187.606 543.224h18.702v.188h-18.702v-.188z" fill="#2c353d" fill-rule="evenodd" data-name="Rectangle 274"/><path d="M187.797 525.692v17.696h-.188v-17.696h.188z" fill="#2c353d" fill-rule="evenodd" data-name="Rectangle 275"/></g></svg>