<svg xmlns="http://www.w3.org/2000/svg" width="15.983" height="18.383" viewBox="278.833 523.3 15.983 18.383"><g data-name="Group 555"><path d="M287.3 523.314c4.112 0-4.11 0 0 0Z" fill="#f2f2f2" fill-rule="evenodd" data-name="Path 379"/><path d="m285.25 541.336-2.202-8.72.308-1.957.749 3.85.859.33-.953-4.976a1.435 1.435 0 0 0-1.41-1.165h-.192v-.706l1.19.148s-.145-1.264-.375-1.646c-.33-.55-.859-.792-1.255-.792-.02 0-.038.009-.055.02a.107.107 0 0 0-.055-.02c-.397 0-1.035.242-1.3.748-.206.396-.33 1.69-.33 1.69l1.167-.148v.706h-.192c-.689 0-1.28.489-1.41 1.165l-.952 4.977.859-.33.779-4.018.293 2.102h-.015l-1.762 8.742h1.19v.308h1.584v-.308h.86v.308h1.585v-.308h1.035Z" fill="#ff6501" fill-rule="evenodd" data-name="Path 380"/><path d="M294.801 534.972v-5.938c0-.965-.782-1.747-1.747-1.747h-.4v-.567a1.228 1.228 0 0 0-.35-2.267 1.235 1.235 0 0 0-1.5 1.204c0 .456.25.849.617 1.063v.567h-.4c-.965 0-1.747.782-1.747 1.747v5.938l.903-.462v-4.235l.396 2.689v7.827h-.556v.837h1.894l.005-7.052h.265v7.068h1.893v-.836h-.506v-7.844l.33-2.241v3.787l.903.462Z" fill="#ff7f2c" fill-rule="evenodd" data-name="Path 381"/><path d="m289.952 534.623-.678.349.023.815-.966.544h-.792v-.241a.904.904 0 0 0-.318-1.753.904.904 0 0 0-.311 1.754v.24h-.758l-1.026-.56-.162-.931-.688-.26.204 1.496 1.642 1.072v2.208h.006v2.31h.918v-2.31h.357v2.31h.934v-2.31h.006l.011-2.175 1.649-1.105-.051-1.453Z" fill="#ff7f2c" fill-rule="evenodd" data-name="Path 382"/><path d="M285.703 541.208h1.343v.459h-1.343v-.459z" fill="#ff6501" fill-rule="evenodd" data-name="Rectangle 266"/><path d="M287.411 541.208h1.343v.459h-1.343v-.459z" fill="#ff6501" fill-rule="evenodd" data-name="Rectangle 267"/><path d="m283.356 530.66.749 3.85.327.125-.914-4.772a1.435 1.435 0 0 0-1.41-1.165h-.058v-.706h.36l.688.086c-.032-.258-.168-1.252-.367-1.584-.28-.467-.703-.71-1.068-.774-.386.063-.879.3-1.104.73-.179.343-.302 1.427-.33 1.69l1.167-.148v.706h-.192c-.689 0-1.28.489-1.41 1.165l-.913 4.772.84-.377.473-2.29.286-1.476.293 2.102h-.015l-1.762 8.742h1.189v.308h1.093v-.308h1.351v.308h1.093v-.308H284.757l-2.059-8.763.658-1.914Z" fill="#f07627" fill-rule="evenodd" data-name="Path 383"/><path d="M293.027 540.808v-7.844l.871-2.241v3.787l.472.24v-5.607c0-.965-.997-1.856-1.962-1.856h-.145v-.567c.433-.252.689-.808.578-1.367-.09-.453-.493-.85-1.127-.885a1.228 1.228 0 0 0-.293 2.251v.568h-.4c-.965 0-1.747.782-1.747 1.747v5.938l.653-.335.25-.127v-4.235l.396 2.689v7.827h-.556v.837h1.894l.005-7.052h.265v7.068h1.068v-.836h-.222Z" fill="#ff6501" fill-rule="evenodd" data-name="Path 384"/><path d="m287.952 539.356.011-2.175 1.649-1.105-.044-1.255-.294.151.023.815-.966.544H287.284v-.241c.343-.13.453-.458.453-.846a.905.905 0 0 0-.711-.884.905.905 0 0 0-.116 1.731v.24H285.762l-1.027-.56-.068-1.105-.391-.085.204 1.495 1.642 1.072v2.208h.006v2.31h.527v-2.31h.357v2.31h.034v-2.31h.357v2.31h.543v-2.31h.006Z" fill="#ff6501" fill-rule="evenodd" data-name="Path 385"/></g></svg>