<svg xmlns="http://www.w3.org/2000/svg" width="18.633" height="18.1" viewBox="98.467 527.467 18.633 18.1"><g data-name="Group 550"><path d="m107.271 528.593.229 3.34 1.462.054s.482-3.414 0-3.583c-.483-.17-1.69.189-1.69.189Z" fill="#060024" fill-rule="evenodd" data-name="Path 388"/><path d="m109.977 528.088-8.46-.602.463 4.24 8.521.298c-.084-1.596-.524-3.936-.524-3.936Zm-7.243 3.639s-.037-3.101 0-3.497c0 0 6.229.396 6.455.514.227.119.335 3.243.335 3.243l-6.79-.26Z" fill="#ff6501" fill-rule="evenodd" data-name="Path 389"/><path d="m98.763 542.661.484-10.933h4.329s3.888 3.96 5.635 11.085l-10.448-.152Z" fill="#ff6501" fill-rule="evenodd" data-name="Path 390"/><path d="m110.41 532.092-9.497-.364s4.227 5.313 5.636 11.085l8.843-.152s-1.119-6.05-4.982-10.57Z" fill="#ff6501" fill-rule="evenodd" data-name="Path 391"/><path d="M101.999 532.398s3.38 3.773 5.156 9.579h7.409s-.947-4.706-4.49-9.41l-8.075-.17Z" fill="#fff" fill-rule="evenodd" data-name="Path 392"/><path d="M109.353 532.553s2.94 4.041 4.48 9.424h.73s-.599-4.491-4.49-9.41l-.72-.014Z" fill="#ff7f2c" fill-rule="evenodd" data-name="Path 393"/><path d="M100.688 531.728v-4.121s1.645-.27 2.132 0v4.121h-2.132Z" fill="#ff6501" fill-rule="evenodd" data-name="Path 394"/><g data-name="Group 540"><path d="m108.082 537.762-1.211-3.328-.386 1.89-.444-.8v.278l-1.696.142-.234-.392 1.592-.089v-1.247l.633 1.144.443-2.167 1.168 3.21.171-1.124h2.777l.17.312-2.656.026-.327 2.145Z" fill="#ff7f2c" fill-rule="evenodd" data-name="Path 395"/></g><path d="M99.98 533.608c-1.014.398-1.435 1.464-.828 2.585.607 1.12 4.031 5.446 4.031 5.446l3.366-2.294s-1.49-2.724-2.228-3.596c-1.14-1.347-3.548-2.453-4.342-2.14Z" fill="#ff6501" fill-rule="evenodd" data-name="Path 396"/><path d="M99.22 534.125c-1.013.398.043 3.732.65 4.852.607 1.121 2.554 3.179 2.554 3.179l3.366-2.294s-1.49-2.723-2.228-3.596c-1.14-1.346-3.548-2.453-4.342-2.14Z" fill="#ff7f2c" fill-rule="evenodd" data-name="Path 397"/><path d="m99.73 535.505-1.24 1.12s1.546 3.774 4.07 5.013l.997-.703s-2.502-2.83-3.827-5.43Z" fill="#ff7f2c" fill-rule="evenodd" data-name="Path 398"/><path d="m99.73 535.505.62-.147 3.637 5.26-.43.317s-3.264-3.442-3.827-5.43Z" fill="#ff6501" fill-rule="evenodd" data-name="Path 399"/><g data-name="Group 541"><path d="M109.388 545.552a6.62 6.62 0 0 1-1.59-.21c-4.395-1.09-5.083-4.35-5.09-4.382a.127.127 0 0 1 .25-.05c.006.032.67 3.136 4.901 4.186 1.414.35 2.595.246 3.513-.313 1.221-.744 1.544-2.046 1.547-2.06a.127.127 0 0 1 .247.059c-.014.058-.351 1.42-1.662 2.217-.605.369-1.313.553-2.116.553Z" fill="#ff6501" fill-rule="evenodd" data-name="Path 400"/></g><g data-name="Group 542"><path d="M115.037 544.165c-1.832 0-4.26-1.176-4.387-1.238a.127.127 0 0 1-.058-.17.128.128 0 0 1 .17-.058c.037.019 3.793 1.838 5.371.987.381-.205.597-.546.66-1.04.366-2.899-3.297-5.434-3.333-5.459a.127.127 0 0 1 .142-.21c.157.107 3.828 2.65 3.442 5.7-.072.574-.338.988-.79 1.233-.339.182-.76.255-1.217.255Z" fill="#ff7f2c" fill-rule="evenodd" data-name="Path 401"/></g></g></svg>