<svg xmlns="http://www.w3.org/2000/svg" width="13.017" height="14.267" viewBox="189.95 442.133 13.017 14.267"><g data-name="Group 547"><path d="M202.02 455.079a3.512 3.512 0 0 0-3.513-3.512h-.804v-1.141a2.471 2.471 0 0 0-.703-4.559 2.483 2.483 0 0 0-3.016 2.423c0 .916.501 1.706 1.24 2.136v1.14h-.805a3.512 3.512 0 0 0-3.512 3.513h11.113Z" fill="#17173c" fill-rule="evenodd" data-name="Path 189"/><path d="M197.61 451.575h-.803v-1.15c.87-.506 1.326-1.427 1.17-2.562-.204-1.475-1.327-1.707-2.201-1.952a2.468 2.468 0 0 0-.553 4.515v1.14h-.804a3.512 3.512 0 0 0-3.512 3.513h9.74c0-1.94-1.096-3.504-3.036-3.504Z" fill="#17173c" fill-rule="evenodd" data-name="Path 190"/><path d="M189.96 444.266h.422v10.241h-.422v-10.241z" fill="#17173c" fill-rule="evenodd" data-name="Rectangle 246"/><path d="M192.053 444.266h.423v10.241h-.423v-10.241z" fill="#17173c" fill-rule="evenodd" data-name="Rectangle 247"/><path d="M194.147 444.266h.423v10.241h-.423v-10.241z" fill="#17173c" fill-rule="evenodd" data-name="Rectangle 248"/><path d="M196.24 444.266h.423v10.241h-.422v-10.241z" fill="#17173c" fill-rule="evenodd" data-name="Rectangle 249"/><path d="M198.334 444.266h.423v10.241h-.423v-10.241z" fill="#17173c" fill-rule="evenodd" data-name="Rectangle 250"/><path d="M200.428 444.266h.422v10.241h-.422v-10.241z" fill="#17173c" fill-rule="evenodd" data-name="Rectangle 251"/><path d="M202.505 444.266h.422v10.241h-.422v-10.241z" fill="#17173c" fill-rule="evenodd" data-name="Rectangle 252"/><path d="M189.96 442.609h12.984v1.657H189.96v-1.657Z" fill="#17173c" fill-rule="evenodd" data-name="Path 421"/><path d="M189.96 442.139h12.984v1.656H189.96v-1.656Z" fill="#17173c" fill-rule="evenodd" data-name="Path 191"/><path d="M189.96 454.731h12.984v1.657H189.96v-1.657Z" fill="#17173c" fill-rule="evenodd" data-name="Path 422"/><path d="M189.96 454.26h12.984v1.658H189.96v-1.657z" fill="#17173c" fill-rule="evenodd" data-name="Rectangle 256"/></g></svg>