<svg xmlns="http://www.w3.org/2000/svg" width="13.217" height="15.6" viewBox="281.9 436.367 13.217 15.6"><g data-name="Group 552"><path d="M294.107 436.386s.484-.07.726.328.277 1.383.277 1.383h-5.844l4.841-1.711Z" fill="#cdccca" fill-rule="evenodd" data-name="Path 192"/><path d="M294.176 451.948h-11.083s.968-.761.899-3.84c-.125-5.533-2.311-7.977-1.833-10.53.156-.83.796-1.192.796-1.192h11.152s-.605.311-.726 1.175c-.366 2.61 1.262 5.101 1.59 10.807.078 1.342.291 2.495-.069 3.13-.293.519-.726.45-.726.45Z" fill="#f2f2f2" fill-rule="evenodd" data-name="Path 193"/><path d="M294.35 451.95s-.537-.007-.883-.318c-.46-.414-.536-.772-.536-.772H281.92s.201.533.5.746c.453.324.875.344.875.344h11.055Z" fill="#e0e0e0" fill-rule="evenodd" data-name="Path 194"/><path d="M283.82 438.78h7.598v.165h-7.599v-.165z" fill="#cdccca" fill-rule="evenodd" data-name="Rectangle 257"/><path d="M284.26 440.596h7.6v.112h-7.6v-.112z" fill="#17173c" fill-rule="evenodd" data-name="Rectangle 258"/><path d="M284.474 441.607h7.6v.113h-7.6v-.113z" fill="#17173c" fill-rule="evenodd" data-name="Rectangle 259"/><path d="M284.688 442.62h7.6v.111h-7.6v-.112z" fill="#17173c" fill-rule="evenodd" data-name="Rectangle 260"/><path d="M284.902 443.657h7.6v.112h-7.6v-.112z" fill="#17173c" fill-rule="evenodd" data-name="Rectangle 261"/><path d="M285.116 444.746h7.6v.112h-7.6v-.112z" fill="#17173c" fill-rule="evenodd" data-name="Rectangle 262"/><path d="M281.979 451.007h11.007l-.055-.147h-11.029l.077.147Z" fill="#fff" fill-rule="evenodd" data-name="Path 195"/><g data-name="Group 202"><path d="M293.591 447.729a1.867 1.867 0 1 1-3.734 0 1.867 1.867 0 0 1 3.734 0Z" fill="#17173c" fill-rule="evenodd" data-name="Path 196"/><path d="M293.232 447.729a1.508 1.508 0 1 1-3.015 0 1.508 1.508 0 0 1 3.015 0Z" fill="#17173c" fill-rule="evenodd" data-name="Path 197"/><path d="M290.478 447.629a1.246 1.246 0 1 1 0 .1z" fill="#17173c" fill-rule="evenodd" data-name="Ellipse 46"/></g></g></svg>