<svg xmlns="http://www.w3.org/2000/svg" width="8.917" height="14.483" viewBox="309.917 202.667 8.917 14.483"><g data-name="Group 113"><path d="M317.963 204.935c-.736-1.212-1.96-1.948-3.356-2.019a4.56 4.56 0 0 0-.466 0c-1.396.07-2.619.807-3.356 2.02a4.353 4.353 0 0 0-.243 4.073l3.656 7.816a.194.194 0 0 0 .352 0l3.658-7.818a4.354 4.354 0 0 0-.245-4.072Zm-.108 3.909-3.481 7.44-3.48-7.438a3.965 3.965 0 0 1 .223-3.71c.67-1.1 1.778-1.768 3.044-1.832a4.227 4.227 0 0 1 .426 0c1.266.064 2.375.732 3.044 1.833a3.964 3.964 0 0 1 .224 3.707Z" stroke-linejoin="round" stroke-linecap="round" stroke-width=".3" stroke="#17173c" fill="transparent" data-name="Path 80"/><path d="M314.374 204.837c-1.279 0-2.32 1.04-2.32 2.32a2.322 2.322 0 0 0 2.32 2.318 2.32 2.32 0 0 0 2.318-2.319 2.32 2.32 0 0 0-2.318-2.319Zm0 4.25a1.932 1.932 0 0 1-1.93-1.93c0-1.065.865-1.931 1.93-1.931 1.064 0 1.93.866 1.93 1.93 0 1.065-.866 1.93-1.93 1.93Z" stroke-linejoin="round" stroke-linecap="round" stroke-width=".3" stroke="#17173c" fill="transparent" data-name="Path 81"/><path d="M315.428 206.943h-.97v-.908a.194.194 0 1 0-.389 0v.908h-.97a.194.194 0 0 0 0 .389h.97v.945a.194.194 0 1 0 .388 0v-.945h.971a.195.195 0 0 0 .195-.195.195.195 0 0 0-.195-.194Z" stroke-linejoin="round" stroke-linecap="round" stroke-width=".3" stroke="#17173c" fill="transparent" data-name="Path 82"/></g></svg>