<svg xmlns="http://www.w3.org/2000/svg" width="31.017" height="14.033" viewBox="333.983 103.983 31.017 14.033"><g data-name="Group 143"><path d="M336 104h15a2 2 0 0 1 2 2 2 2 0 0 1-2 2h-15a2 2 0 0 1-2-2 2 2 0 0 1 2-2z" fill="#fff" fill-rule="evenodd" data-name="Rectangle 108"/><path d="M358 104h5a2 2 0 0 1 2 2 2 2 0 0 1-2 2h-5a2 2 0 0 1-2-2 2 2 0 0 1 2-2z" fill="#fff" fill-rule="evenodd" data-name="Rectangle 115"/><path d="M336 109h15a2 2 0 0 1 2 2 2 2 0 0 1-2 2h-15a2 2 0 0 1-2-2 2 2 0 0 1 2-2z" fill="#fff" fill-rule="evenodd" data-name="Rectangle 113"/><path d="M358 109h5a2 2 0 0 1 2 2 2 2 0 0 1-2 2h-5a2 2 0 0 1-2-2 2 2 0 0 1 2-2z" fill="#fff" fill-rule="evenodd" data-name="Rectangle 116"/><path d="M336 114h15a2 2 0 0 1 2 2 2 2 0 0 1-2 2h-15a2 2 0 0 1-2-2 2 2 0 0 1 2-2z" fill="#fff" fill-rule="evenodd" data-name="Rectangle 114"/><path d="M358 114h5a2 2 0 0 1 2 2 2 2 0 0 1-2 2h-5a2 2 0 0 1-2-2 2 2 0 0 1 2-2z" fill="#fff" fill-rule="evenodd" data-name="Rectangle 117"/></g></svg>