<svg xmlns="http://www.w3.org/2000/svg" width="21.883" height="20" viewBox="-1.217 -1.233 21.883 20"><g data-name="Path 39"><path d="M20.437.237c-.003-.021-.005-.042-.013-.061-.008-.02-.02-.036-.033-.053-.007-.011-.011-.024-.02-.035l-.005-.003c-.015-.015-.034-.025-.052-.037C20.3.04 20.29.029 20.277.024c-.012-.006-.027-.006-.04-.01-.022-.006-.043-.013-.066-.013L20.166 0H.279L.273.001C.251.001.23.008.21.014.195.017.18.018.167.024.154.029.144.04.132.047.113.06.094.07.078.085L.074.088C.064.098.06.112.053.123.04.14.028.156.02.176c-.007.02-.009.04-.012.06C.006.25 0 .263 0 .277V14.65c0 .152.125.276.279.276H9.96c.165 2.019 1.877 3.613 3.96 3.613 2.084 0 3.796-1.594 3.961-3.613h2.285a.277.277 0 0 0 .278-.276V.275c0-.013-.006-.025-.007-.038Zm-.983.314-9.232 8.432L.991.551h18.463ZM13.92 17.988c-1.886 0-3.42-1.517-3.42-3.381 0-1.865 1.534-3.382 3.42-3.382 1.885 0 3.42 1.517 3.42 3.382 0 1.864-1.535 3.38-3.42 3.38Zm5.966-3.613h-2.001c-.123-2.06-1.852-3.7-3.965-3.7-2.114 0-3.843 1.64-3.965 3.7H.557V.905l9.476 8.655a.279.279 0 0 0 .378 0L19.887.905v13.47Z" fill="#fff" fill-rule="evenodd"/><path d="M20.437.237c-.003-.021-.005-.042-.013-.061-.008-.02-.02-.036-.033-.053-.007-.011-.011-.024-.02-.035l-.005-.003c-.015-.015-.034-.025-.052-.037C20.3.04 20.29.029 20.277.024c-.012-.006-.027-.006-.04-.01-.022-.006-.043-.013-.066-.013L20.166 0H.279L.273.001C.251.001.23.008.21.014.195.017.18.018.167.024.154.029.144.04.132.047.113.06.094.07.078.085L.074.088C.064.098.06.112.053.123.04.14.028.156.02.176c-.007.02-.009.04-.012.06C.006.25 0 .263 0 .277V14.65c0 .152.125.276.279.276H9.96c.165 2.019 1.877 3.613 3.96 3.613 2.084 0 3.796-1.594 3.961-3.613h2.285a.277.277 0 0 0 .278-.276V.275c0-.013-.006-.025-.007-.038Zm-.983.314-9.232 8.432L.991.551h18.463ZM13.92 17.988c-1.886 0-3.42-1.517-3.42-3.381 0-1.865 1.534-3.382 3.42-3.382 1.885 0 3.42 1.517 3.42 3.382 0 1.864-1.535 3.38-3.42 3.38Zm5.966-3.613h-2.001c-.123-2.06-1.852-3.7-3.965-3.7-2.114 0-3.843 1.64-3.965 3.7H.557V.905l9.476 8.655a.279.279 0 0 0 .378 0L19.887.905v13.47Z" stroke-linejoin="round" stroke-linecap="round" stroke="#fff" fill="transparent"/></g></svg>