<svg xmlns="http://www.w3.org/2000/svg" width="20.783" height="19.983" viewBox="55.283 103.15 20.783 19.983"><g data-name="Group 57"><g data-name="Path 36"><path d="M65.523 120.507c-.356 0-.711-.016-1.064-.047l-4.69-.42-2.764.001c-.274 0-.54-.113-.73-.31a.982.982 0 0 1-.274-.737c.028-.528.488-.942 1.047-.942h.519c1.084 0 1.967-.872 1.967-1.944v-5.157c0-3.265 2.686-5.922 5.99-5.922 3.302 0 5.989 2.657 5.989 5.922v5.157c0 1.072.882 1.944 1.966 1.944h.819c.507 0 .95.352 1.032.819a.99.99 0 0 1-.22.816 1.01 1.01 0 0 1-.77.354h-3.087l-4.666.42c-.353.03-.709.046-1.064.046Zm-8.475-1.942c-.278 0-.515.205-.528.456a.483.483 0 0 0 .486.507h2.787l4.712.421c.676.06 1.36.06 2.036 0l4.689-.42 3.11-.001a.49.49 0 0 0 .373-.172.474.474 0 0 0 .106-.397c-.04-.224-.263-.394-.521-.394h-.819c-1.37 0-2.485-1.102-2.485-2.457v-5.157c0-2.982-2.454-5.408-5.47-5.408-3.017 0-5.472 2.426-5.472 5.408v5.157c0 1.355-1.115 2.457-2.485 2.457h-.52Z" fill="#fff" fill-rule="evenodd"/><path d="M65.523 120.507c-.356 0-.711-.016-1.064-.047l-4.69-.42-2.764.001c-.274 0-.54-.113-.73-.31a.982.982 0 0 1-.274-.737c.028-.528.488-.942 1.047-.942h.519c1.084 0 1.967-.872 1.967-1.944v-5.157c0-3.265 2.686-5.922 5.99-5.922 3.302 0 5.989 2.657 5.989 5.922v5.157c0 1.072.882 1.944 1.966 1.944h.819c.507 0 .95.352 1.032.819a.99.99 0 0 1-.22.816 1.01 1.01 0 0 1-.77.354h-3.087l-4.666.42c-.353.03-.709.046-1.064.046Zm-8.475-1.942c-.278 0-.515.205-.528.456a.483.483 0 0 0 .486.507h2.787l4.712.421c.676.06 1.36.06 2.036 0l4.689-.42 3.11-.001a.49.49 0 0 0 .373-.172.474.474 0 0 0 .106-.397c-.04-.224-.263-.394-.521-.394h-.819c-1.37 0-2.485-1.102-2.485-2.457v-5.157c0-2.982-2.454-5.408-5.47-5.408-3.017 0-5.472 2.426-5.472 5.408v5.157c0 1.355-1.115 2.457-2.485 2.457h-.52Z" stroke-linejoin="round" stroke-linecap="round" stroke="#fff" fill="transparent"/></g><g data-name="Path 37"><path d="M65.524 122.413c-1.167 0-2.117-.938-2.117-2.092 0-.142.116-.257.26-.257.143 0 .26.115.26.257 0 .87.716 1.58 1.597 1.58a1.59 1.59 0 0 0 1.596-1.58c0-.142.117-.257.26-.257.143 0 .26.115.26.257 0 1.154-.95 2.092-2.116 2.092Z" fill="#fff" fill-rule="evenodd"/><path d="M65.524 122.413c-1.167 0-2.117-.938-2.117-2.092 0-.142.116-.257.26-.257.143 0 .26.115.26.257 0 .87.716 1.58 1.597 1.58a1.59 1.59 0 0 0 1.596-1.58c0-.142.117-.257.26-.257.143 0 .26.115.26.257 0 1.154-.95 2.092-2.116 2.092Z" stroke-linejoin="round" stroke-linecap="round" stroke="#fff" fill="transparent"/></g><g data-name="Path 38"><path d="M65.524 107.574a.258.258 0 0 1-.26-.256v-3.186c0-.142.116-.257.26-.257.143 0 .26.115.26.257v3.186a.258.258 0 0 1-.26.256Z" fill="#fff" fill-rule="evenodd"/><path d="M65.524 107.574a.258.258 0 0 1-.26-.256v-3.186c0-.142.116-.257.26-.257.143 0 .26.115.26.257v3.186a.258.258 0 0 1-.26.256Z" stroke-linejoin="round" stroke-linecap="round" stroke="#fff" fill="transparent"/></g></g></svg>