<svg xmlns="http://www.w3.org/2000/svg" width="20.517" height="21.75" viewBox="284.75 340.983 20.517 21.75"><g data-name="Group 133"><path d="m299.407 362.288-6.942-4.509-.156.062a.236.236 0 0 1-.217-.02l-.001-.001a.237.237 0 0 1-.108-.192l-.004-.164-6.862-4.456a.238.238 0 0 0-.258.398l14.29 9.28a.237.237 0 0 0 .258-.398Z" fill="#17173c" fill-rule="evenodd" data-name="Path 107"/><path d="m292.181 349.761.2.13 5.54-8.531a.238.238 0 0 0-.4-.259l-5.669 8.73a.238.238 0 0 1 .329-.07Z" fill="#17173c" fill-rule="evenodd" data-name="Path 108"/><path d="M299.387 355.01a.238.238 0 0 0 .11-.091l.057-.087a.237.237 0 0 1-.329.07l-.323-.21-5.367 2.148.092.06a.237.237 0 0 1-.258.398l-.373-.243-.548.22-.017-.586-.37-.24a.237.237 0 0 1 .259-.399l.094.061-.171-5.743-.32-.208a.238.238 0 0 1-.07-.329l-.057.087a.237.237 0 0 0-.038.136l.22 7.41.487.315 6.922-2.77Z" fill="#17173c" fill-rule="evenodd" data-name="Path 109"/><path d="m299.553 354.832 5.67-8.73a.237.237 0 0 0-.398-.258l-5.54 8.53.199.13c.11.071.14.218.07.328Z" fill="#17173c" fill-rule="evenodd" data-name="Path 110"/><path d="M292.09 357.82h.002c.064.042.145.05.217.021l.156-.062-.486-.315.004.164a.237.237 0 0 0 .108.192Z" fill="#17173c" fill-rule="evenodd" data-name="Path 111"/><path d="m292.243 350.368 6.659 4.324.238-.095.145-.222-6.905-4.484-.145.223.008.254Z" fill="#17173c" fill-rule="evenodd" data-name="Path 112"/><path d="m291.922 350.16.32.208-.007-.254.145-.223-.199-.13a.238.238 0 0 0-.259.399Z" fill="#17173c" fill-rule="evenodd" data-name="Path 113"/><path d="m298.902 354.692.323.21a.237.237 0 0 0 .259-.398l-.2-.13-.144.223-.238.095Z" fill="#17173c" fill-rule="evenodd" data-name="Path 114"/><path d="m292.43 356.689.566.366.54-.216-1.122-.728.017.578Z" fill="#17173c" fill-rule="evenodd" data-name="Path 115"/><path d="M292.32 356.05a.237.237 0 0 0-.259.399l.37.24-.018-.578-.093-.06Z" fill="#17173c" fill-rule="evenodd" data-name="Path 116"/><path d="M293.369 357.298a.237.237 0 0 0 .258-.398l-.092-.06-.54.215.374.243Z" fill="#17173c" fill-rule="evenodd" data-name="Path 117"/><path d="M294.934 349.52c.11.071.257.04.328-.07l3.492-5.378a.237.237 0 0 0-.398-.258l-3.492 5.377a.237.237 0 0 0 .07.329Z" fill="#17173c" fill-rule="evenodd" data-name="Path 118"/><path d="M298.652 351.934c.11.071.257.04.328-.07l3.492-5.377a.238.238 0 0 0-.398-.259l-3.492 5.377a.238.238 0 0 0 .07.329Z" fill="#17173c" fill-rule="evenodd" data-name="Path 119"/><path d="M297.255 349.942c.11.071.257.04.329-.07l3.621-5.577a.237.237 0 0 0-.398-.258l-3.622 5.576a.238.238 0 0 0 .07.329Z" fill="#17173c" fill-rule="evenodd" data-name="Path 120"/></g></svg>