<svg xmlns="http://www.w3.org/2000/svg" width="19.517" height="15.433" viewBox="91.05 339.017 19.517 15.433"><g data-name="Group 567"><g data-name="Group 206"><g data-name="Group 205"><path d="m105.618 348.953-.002-.25c.07 0 .138-.002.207-.005l.012.25a4.634 4.634 0 0 1-.217.005Zm-.723-.048a5.117 5.117 0 0 1-.215-.035l.046-.245c.067.012.135.023.203.033l-.034.247Zm1.659-.046-.048-.244c.068-.014.135-.029.201-.045l.06.242c-.07.017-.141.033-.213.047Zm-2.575-.173a4.815 4.815 0 0 1-.205-.075l.092-.232c.064.026.129.049.194.071l-.081.236Zm3.477-.097-.094-.23c.064-.027.127-.054.19-.083l.104.227c-.067.03-.133.059-.2.086Zm-4.335-.292a4.987 4.987 0 0 1-.187-.113l.134-.21c.058.036.117.072.177.106l-.124.217Zm5.168-.144-.136-.209c.058-.037.115-.076.17-.116l.146.203c-.059.042-.119.083-.18.122Zm-5.936-.4a5.485 5.485 0 0 1-.162-.146l.171-.182c.05.047.101.093.153.138l-.162.19Zm6.673-.185-.173-.18c.05-.048.098-.097.146-.146l.18.172c-.05.052-.1.104-.153.154Zm-7.325-.495a4.43 4.43 0 0 1-.132-.173l.202-.146c.041.056.082.11.125.164l-.195.155Zm7.938-.219-.203-.145a3.7 3.7 0 0 0 .116-.17l.21.134c-.04.062-.08.122-.123.181Zm-8.45-.57a5.51 5.51 0 0 1-.097-.195l.226-.105c.03.062.06.124.092.185l-.221.115Zm8.919-.248-.227-.102c.028-.063.055-.127.08-.19l.233.092a4.557 4.557 0 0 1-.086.2Zm-9.273-.625c-.02-.069-.04-.14-.057-.21l.242-.06c.017.067.035.133.055.2l-.24.07Zm9.577-.266-.242-.058c.015-.066.03-.134.043-.202l.245.047c-.014.071-.029.142-.046.213Zm-9.758-.657a5.724 5.724 0 0 1-.017-.217l.25-.014c.003.069.008.138.015.207l-.248.024Zm9.888-.276-.25-.01c.004-.07.005-.138.005-.207v-.042l.25-.004v.048c0 .07-.002.143-.005.215Zm-9.644-.643-.248-.023c.006-.072.015-.144.024-.216l.247.034c-.01.068-.017.136-.023.205Zm9.343-.303a4.851 4.851 0 0 0-.036-.203l.245-.05c.014.072.027.143.038.215l-.247.038Zm-9.179-.576-.24-.07c.02-.069.042-.138.065-.207l.237.08c-.022.065-.043.13-.062.197Zm8.958-.29a4.587 4.587 0 0 0-.074-.192l.231-.095c.027.067.053.135.078.203l-.235.085Zm-8.63-.542-.221-.113c.033-.065.067-.13.103-.192l.217.123a4.73 4.73 0 0 0-.098.182Zm8.249-.266a3.879 3.879 0 0 0-.11-.175l.21-.137c.039.061.078.123.114.185l-.214.127Zm-7.768-.488-.197-.154c.045-.057.09-.113.138-.169l.19.162a4.574 4.574 0 0 0-.131.16Zm7.24-.233a4.493 4.493 0 0 0-.14-.152l.18-.173c.05.052.099.105.147.16l-.187.165Zm-6.626-.418-.164-.188c.054-.047.11-.094.166-.14l.156.195a4.907 4.907 0 0 0-.158.133Zm5.972-.192a4.15 4.15 0 0 0-.166-.123l.143-.204c.06.042.118.085.176.13l-.153.197Zm-5.248-.33-.126-.216c.063-.037.126-.072.19-.106l.117.22c-.06.033-.121.066-.18.101Zm4.491-.146a3.913 3.913 0 0 0-.187-.089l.102-.228c.067.03.133.061.197.094l-.112.223Zm-3.68-.231-.084-.236c.069-.024.138-.047.207-.068l.073.239a4.46 4.46 0 0 0-.196.065Zm2.846-.092a4.453 4.453 0 0 0-.2-.052l.057-.243.21.054-.067.24Zm-1.979-.124-.036-.247c.071-.01.143-.02.215-.027l.027.248a4.54 4.54 0 0 0-.206.026Zm1.1-.035a5.101 5.101 0 0 0-.207-.013l.01-.25c.073.004.146.008.217.014l-.02.249Z" fill="#cdccca" fill-rule="evenodd" data-name="Path 198"/></g></g><g data-name="Group 208"><g data-name="Group 207"><path d="M105.955 346.992a7.443 7.443 0 1 1-14.885 0 7.443 7.443 0 0 1 14.885 0Z" fill="#ff6501" fill-rule="evenodd" data-name="Path 199"/></g></g><g data-name="Group 219"><g data-name="Group 210"><g data-name="Group 209"><path d="M101.062 339.997a7.433 7.433 0 0 0-4.532-.179l1.982 7.174 2.55-6.995Z" fill="#ff7f2c" fill-rule="evenodd" data-name="Path 200"/></g></g><g data-name="Group 212"><g data-name="Group 211"><path d="M96.53 339.818a7.456 7.456 0 0 0-5.06 4.769l7.042 2.405-1.982-7.174Z" fill="#ff6501" fill-rule="evenodd" data-name="Path 201"/></g></g><g data-name="Group 214"><g data-name="Group 213"><path d="M91.464 344.603a7.43 7.43 0 0 0 2.663 8.4l4.385-6.01-7.048-2.39Z" fill="#eb6f1e" fill-rule="evenodd" data-name="Path 202"/></g></g><g data-name="Group 216"><g data-name="Group 215"><path d="M97.607 354.378a7.407 7.407 0 0 0 5.23-1.33l-4.325-6.056-.905 7.386Z" fill="#eb6f1e" fill-rule="evenodd" data-name="Path 203"/></g></g><g data-name="Group 218"><g data-name="Group 217"><path d="M102.844 353.043a7.494 7.494 0 0 0 1.473-1.394l-5.805-4.657 4.332 6.05Z" fill="#ff7f2c" fill-rule="evenodd" data-name="Path 204"/></g></g></g><g data-name="Group 221"><g data-name="Group 220"><path d="M109.147 343.614a3.524 3.524 0 1 1-7.048 0 3.524 3.524 0 0 1 7.048 0Z" fill="#ff7f2c" fill-rule="evenodd" data-name="Path 205"/></g></g><g data-name="Group 222"><path d="m98.512 346.992-4.396 6.005a7.4 7.4 0 0 0 3.507 1.383l.89-7.388Z" fill="#f2f2f2" fill-rule="evenodd" data-name="Path 206"/></g><path d="M108.198 343.38h-.01l-.777-1.48h.091v-.213h-.226v.054h-1.389v-.078h-.477v.078h-1.488v-.054h-.227v.213h.102l-.688 1.48h-.01c.098.445.418.612.76.612a.767.767 0 0 0 .352-.08c.177-.09.319-.26.406-.532h-.01l-.777-1.48h.092v-.066h1.488v.118h.164v3.11h-.166v.182h-.102v.19h-1.02v.271h2.721v-.27h-1.02v-.191h-.101v-.182h-.167v-3.11h.168v-.118h1.39v.066h.1l-.688 1.48h-.009c.097.445.418.612.759.612a.766.766 0 0 0 .353-.08c.177-.09.318-.26.406-.532Zm-4.348 0h-.691l.656-1.41.74 1.41h-.705Zm2.89 0 .656-1.41.74 1.41h-1.395Z" fill="#fff" fill-rule="evenodd" data-name="Path 207"/></g></svg>