<svg xmlns="http://www.w3.org/2000/svg" width="69.433" height="54.9" viewBox="38.983 618.983 69.433 54.9"><g data-name="Group 132"><g data-name="Group 115"><g data-name="Group 114"><path d="m90.849 654.327-.007-.89c.247 0 .492-.008.737-.019l.044.887c-.257.014-.516.02-.774.022Zm-2.575-.171a18.192 18.192 0 0 1-.767-.125l.163-.874c.24.044.482.083.724.119l-.12.88Zm5.91-.165-.168-.87c.24-.048.48-.101.716-.16l.212.864c-.25.06-.503.117-.76.166Zm-9.176-.615a16.935 16.935 0 0 1-.73-.27l.328-.827c.227.092.458.176.691.255l-.29.842Zm12.392-.348-.334-.822c.227-.092.451-.189.673-.292l.372.807c-.235.108-.472.21-.711.307Zm-15.45-1.04a17.593 17.593 0 0 1-.665-.402l.476-.752c.209.132.418.26.632.382l-.442.771Zm18.42-.511-.485-.745c.207-.134.41-.273.608-.416l.518.723c-.211.151-.424.296-.64.438Zm-21.158-1.43a19.577 19.577 0 0 1-.576-.52l.61-.646c.178.166.361.332.546.492l-.58.674Zm23.784-.657-.617-.64c.176-.171.35-.346.52-.522l.644.613c-.179.186-.36.37-.547.55Zm-26.108-1.764c-.16-.201-.317-.408-.468-.618l.72-.52c.145.199.293.395.445.587l-.697.551Zm28.293-.78-.724-.516c.142-.198.28-.402.412-.609l.748.48a15.88 15.88 0 0 1-.436.645Zm-30.117-2.032c-.118-.229-.233-.46-.343-.695l.805-.376c.105.224.213.442.326.66l-.788.411Zm31.787-.882-.809-.366c.1-.225.197-.45.288-.679l.827.33c-.097.242-.198.48-.306.715Zm-33.048-2.228a17.63 17.63 0 0 1-.204-.748l.864-.214c.059.238.123.473.194.709l-.854.253Zm34.134-.951-.865-.204c.056-.238.108-.478.155-.721l.873.168c-.05.253-.104.506-.163.757Zm-34.78-2.341a20.37 20.37 0 0 1-.059-.772l.888-.052c.014.248.032.493.057.738l-.886.086Zm35.24-.98-.888-.04c.011-.244.017-.49.017-.736v-.148l.889-.015v.17c0 .253-.005.511-.018.768Zm-34.368-2.296-.886-.078c.024-.259.053-.516.087-.772l.88.121c-.032.241-.06.485-.08.73Zm33.298-1.077c-.039-.244-.081-.485-.13-.724l.872-.176c.05.253.096.507.137.763l-.88.137Zm-32.713-2.055-.855-.245c.071-.248.147-.496.23-.741l.843.285c-.078.233-.15.466-.218.701Zm31.926-1.03a16.207 16.207 0 0 0-.266-.688l.824-.338c.097.24.19.48.277.723l-.835.304Zm-30.755-1.934-.792-.403c.117-.23.24-.46.37-.684l.772.439c-.122.214-.238.43-.35.648Zm29.395-.947a13.822 13.822 0 0 0-.39-.623l.744-.488c.141.216.279.436.41.657l-.764.454Zm-27.684-1.74-.7-.548c.159-.203.322-.404.49-.603l.676.578c-.161.188-.314.378-.466.573Zm25.803-.832a16.065 16.065 0 0 0-.5-.539l.639-.619c.18.187.355.376.526.569l-.665.589Zm-23.616-1.488-.585-.668c.194-.17.39-.336.594-.5l.555.695c-.19.154-.379.312-.564.473Zm21.285-.685a14.89 14.89 0 0 0-.593-.436l.51-.728c.212.15.422.302.627.46l-.544.704Zm-18.702-1.179-.45-.766c.224-.13.449-.256.676-.377l.416.786c-.216.115-.43.233-.642.357Zm16.005-.516c-.219-.112-.441-.218-.667-.318l.363-.811c.237.106.473.217.703.334l-.4.795Zm-13.117-.825-.297-.84c.244-.085.49-.167.738-.242l.258.851c-.234.072-.469.149-.7.23Zm10.144-.328a15.899 15.899 0 0 0-.715-.184l.204-.866c.251.06.501.123.75.193l-.239.857Zm-7.053-.441-.13-.88c.254-.038.51-.07.768-.098l.095.885c-.247.025-.49.057-.733.093Zm3.919-.126a18.53 18.53 0 0 0-.736-.046l.035-.887c.26.01.518.025.774.048l-.073.885Z" fill="#cdccca" fill-rule="evenodd" data-name="Path 97"/></g></g><g data-name="Group 117"><g data-name="Group 116"><path d="M92.051 647.338c0 14.649-11.875 26.524-26.525 26.524-14.65 0-26.526-11.875-26.526-26.524 0-14.65 11.877-26.526 26.526-26.526 14.65 0 26.525 11.876 26.525 26.526Z" fill="#353f49" fill-rule="evenodd" data-name="Path 98"/></g></g><g data-name="Group 128"><g data-name="Group 119"><g data-name="Group 118"><path d="M74.611 622.41a26.49 26.49 0 0 0-9.085-1.598 26.54 26.54 0 0 0-7.066.959l7.066 25.567 9.085-24.928Z" fill="#cdccca" fill-rule="evenodd" data-name="Path 99"/></g></g><g data-name="Group 121"><g data-name="Group 120"><path d="M58.46 621.77c-8.458 2.333-15.22 8.747-18.035 16.994l25.1 8.574-7.065-25.567Z" fill="#92e0ea" fill-rule="evenodd" data-name="Path 100"/></g></g><g data-name="Group 123"><g data-name="Group 122"><path d="M40.404 638.825A26.482 26.482 0 0 0 39 647.338c0 8.803 4.292 16.6 10.895 21.425l15.63-21.425-25.12-8.513Z" fill="#f77b55" fill-rule="evenodd" data-name="Path 101"/></g></g><g data-name="Group 125"><g data-name="Group 124"><path d="M62.299 673.66a26.397 26.397 0 0 0 18.642-4.741l-15.415-21.581-3.227 26.321Z" fill="#ffdb7a" fill-rule="evenodd" data-name="Path 102"/></g></g><g data-name="Group 127"><g data-name="Group 126"><path d="M80.963 668.901a26.71 26.71 0 0 0 5.25-4.968l-20.687-16.595L80.963 668.9Z" fill="#353f49" fill-rule="evenodd" data-name="Path 103"/></g></g></g><g data-name="Group 130"><g data-name="Group 129"><path d="M103.426 635.298c0 6.936-5.623 12.559-12.559 12.559-6.936 0-12.559-5.623-12.559-12.559 0-6.935 5.623-12.558 12.559-12.558 6.936 0 12.559 5.623 12.559 12.558Z" fill="#77d0de" fill-rule="evenodd" data-name="Path 104"/></g></g><g data-name="Group 131"><path d="m65.526 647.338-15.667 21.399a26.373 26.373 0 0 0 12.498 4.93l3.169-26.33Z" fill="#f2f2f2" fill-rule="evenodd" data-name="Path 105"/></g><path d="M100.044 634.466h-.034l-2.77-5.275h.325v-.76h-.806v.192H91.81v-.278h-1.701v.278h-5.305v-.191h-.807v.76h.364l-2.455 5.274h-.031c.345 1.584 1.488 2.178 2.703 2.178.455 0 .88-.088 1.258-.281.63-.321 1.135-.93 1.446-1.897h-.033l-2.771-5.275h.326v-.236h5.305v.42h.585v11.083h-.592v.649h-.363v.68h-3.635v.964h9.697v-.963h-3.636v-.681h-.361v-.649h-.593v-11.083h.599v-.42h4.949v.236h.362l-2.453 5.275h-.033c.345 1.584 1.49 2.178 2.705 2.178.456 0 .88-.088 1.258-.281.631-.321 1.135-.93 1.446-1.897Zm-15.495 0h-2.463l2.339-5.026 2.639 5.026h-2.515Zm10.3 0 2.337-5.026 2.64 5.026h-4.977Z" fill="#fff" fill-rule="evenodd" data-name="Path 106"/></g></svg>