<svg xmlns="http://www.w3.org/2000/svg" width="35.567" height="43.4" viewBox="253.983 527.983 35.567 43.4"><g data-name="Group 60"><path d="M267.402 549.277c-5.867 0-10.639-4.772-10.639-10.639 0-5.866 4.772-10.638 10.64-10.638 5.866 0 10.638 4.772 10.638 10.638 0 5.867-4.772 10.639-10.639 10.639Zm0-20.075c-5.203 0-9.437 4.233-9.437 9.436 0 5.204 4.234 9.437 9.437 9.437 5.203 0 9.437-4.233 9.437-9.437 0-5.203-4.234-9.436-9.437-9.436Z" fill="#ff6501" fill-rule="evenodd" data-name="Path 44"/><path d="M280.717 571.358H254.6a.6.6 0 0 1-.601-.601v-9.023c0-7.532 6.127-13.66 13.658-13.66 7.532 0 13.66 6.128 13.66 13.66v9.023c0 .332-.27.6-.601.6Zm-25.515-1.203h24.914v-8.42c0-6.87-5.589-12.458-12.458-12.458-6.868 0-12.456 5.588-12.456 12.457v8.421Z" fill="#ff6501" fill-rule="evenodd" data-name="Path 45"/><path d="M276.979 551.535c-2.567 0-4.982-1-6.797-2.815a.602.602 0 0 1 .85-.85 8.353 8.353 0 0 0 5.947 2.463c4.637 0 8.41-3.773 8.41-8.41 0-4.637-3.773-8.41-8.41-8.41-.416 0-.83.03-1.234.089a.602.602 0 0 1-.175-1.19 9.75 9.75 0 0 1 1.409-.102c5.3 0 9.612 4.313 9.612 9.612 0 5.301-4.312 9.613-9.612 9.613Z" fill="#ff6501" fill-rule="evenodd" data-name="Path 46"/><path d="M288.932 571.358h-8.215a.601.601 0 0 1 0-1.203h7.614v-7.498c0-6.133-4.895-11.123-10.912-11.123-.617 0-1.235.053-1.836.157a.601.601 0 0 1-.204-1.184 12.07 12.07 0 0 1 2.04-.174c6.68 0 12.114 5.529 12.114 12.324v8.1a.6.6 0 0 1-.6.601Z" fill="#ff6501" fill-rule="evenodd" data-name="Path 47"/></g></svg>