<svg xmlns="http://www.w3.org/2000/svg" width="16.167" height="11.733" viewBox="281.9 609.55 16.167 11.733"><g data-name="Group 554"><path d="m295.335 620.865-.645.394-.711-.394v-8.162h1.356v8.162Z" fill="#17173c" fill-rule="evenodd" data-name="Path 405"/><path d="M293.8 611.915h1.713v1.647H293.8v-1.647z" fill="#1f1f52" fill-rule="evenodd" data-name="Rectangle 277"/><path d="M281.902 618.266h8.912v2.913h-8.912v-2.913Z" fill="#17173c" fill-rule="evenodd" data-name="Path 423"/><path d="M281.902 609.567h8.912v8.713h-8.912v-8.713z" fill="#17173c" fill-rule="evenodd" data-name="Rectangle 279"/><path d="M282.44 618.605h8.374v2.207h-8.374v-2.207z" fill="#f2f2f2" fill-rule="evenodd" data-name="Rectangle 280"/><path d="M282.44 619.044h8.374v.184h-8.374v-.184z" fill="#cdccca" fill-rule="evenodd" data-name="Rectangle 281"/><path d="M282.44 620.203h8.374v.184h-8.374v-.184z" fill="#cdccca" fill-rule="evenodd" data-name="Rectangle 282"/><path d="M282.44 619.624h8.374v.183h-8.374v-.183z" fill="#cdccca" fill-rule="evenodd" data-name="Rectangle 283"/><path d="M282.228 618.605h.325v2.207h-.325v-2.207Z" fill="#282868" fill-rule="evenodd" data-name="Path 424"/><path d="M288.936 614.052h-.01l-.787-1.5h.092v-.215h-.23v.053h-1.406v-.078h-.484v.078h-1.508v-.053h-.23v.215h.104l-.698 1.5h-.01c.099.45.424.62.77.62.129 0 .25-.026.357-.08.18-.092.323-.265.412-.54h-.01l-.788-1.5h.093v-.067h1.508v.12h.166v3.151h-.168v.184h-.103v.194h-1.034v.274h2.758v-.274h-1.034v-.194h-.103v-.184h-.169v-3.152h.17v-.12h1.408v.068h.103l-.697 1.5h-.01c.099.45.424.62.77.62.129 0 .25-.026.357-.08.18-.092.323-.265.411-.54Zm-4.406 0h-.7l.665-1.43.75 1.43h-.715Zm2.929 0 .665-1.43.75 1.43h-1.415Z" fill="#fff" fill-rule="evenodd" data-name="Path 406"/><path d="M292.08 609.875h5.154v2.72h-5.155v-2.72Z" fill="#303048" fill-rule="evenodd" data-name="Path 427"/><g data-name="Group 553"><path d="M291.274 609.553h1.568v3.365h-1.568v-3.365z" fill="#282847" fill-rule="evenodd" data-name="Rectangle 286"/><path d="M296.471 609.553h1.569v3.365h-1.569v-3.365z" fill="#1f1f52" fill-rule="evenodd" data-name="Rectangle 287"/></g><path d="M292.829 610.072h3.651v1.163h-3.651v-1.163Z" fill="#17173c" fill-rule="evenodd" data-name="Path 426"/><path d="M293.061 610.323h2.113v.143h-2.113v-.143z" fill="#fff" fill-rule="evenodd" data-name="Rectangle 289"/><path d="M293.992 612.757h.126v.59h-.126v-.59z" fill="#fff" fill-rule="evenodd" data-name="Rectangle 290"/><path d="M291.274 609.553h1.071v2.864h-1.071v-2.864Z" fill="#17173c" fill-rule="evenodd" data-name="Path 425"/><path d="M296.787 609.553h.785v2.864h-.785v-2.864z" fill="#171735" fill-rule="evenodd" data-name="Rectangle 292"/><path d="M291.567 609.759h.116v1.154h-.116v-1.154z" fill="#fff" fill-rule="evenodd" data-name="Rectangle 293"/><path d="M296.99 609.759h.107v.77h-.107v-.77z" fill="#fff" fill-rule="evenodd" data-name="Rectangle 294"/><path d="m293.979 620.865.711.394.215-.132v-7.198h-.926v6.936Z" fill="#1f1f52" fill-rule="evenodd" data-name="Path 407"/></g></svg>