<svg xmlns="http://www.w3.org/2000/svg" width="15.917" height="17.867" viewBox="123.8 105.95 15.917 17.867"><g data-name="Group 59"><g data-name="Path 41"><path d="M130.826 119.14c-3.472 0-6.297-2.794-6.297-6.227 0-3.433 2.825-6.226 6.297-6.226 3.472 0 6.297 2.793 6.297 6.226s-2.825 6.226-6.297 6.226Zm0-12.007c-3.224 0-5.847 2.593-5.847 5.78 0 3.188 2.623 5.78 5.847 5.78 3.223 0 5.846-2.592 5.846-5.78 0-3.187-2.623-5.78-5.846-5.78Z" fill="#fff" fill-rule="evenodd"/><path d="M130.826 119.14c-3.472 0-6.297-2.794-6.297-6.227 0-3.433 2.825-6.226 6.297-6.226 3.472 0 6.297 2.793 6.297 6.226s-2.825 6.226-6.297 6.226Zm0-12.007c-3.224 0-5.847 2.593-5.847 5.78 0 3.188 2.623 5.78 5.847 5.78 3.223 0 5.846-2.592 5.846-5.78 0-3.187-2.623-5.78-5.846-5.78Z" stroke-linejoin="round" stroke-linecap="round" stroke="#fff" fill="transparent"/></g><g data-name="Path 42"><path d="M138.756 123.093a.226.226 0 0 1-.172-.078l-4.379-5.09a.221.221 0 0 1 .026-.313.227.227 0 0 1 .317.025l4.38 5.09c.08.093.068.234-.026.313a.224.224 0 0 1-.146.053Z" fill="#fff" fill-rule="evenodd"/><path d="M138.756 123.093a.226.226 0 0 1-.172-.078l-4.379-5.09a.221.221 0 0 1 .026-.313.227.227 0 0 1 .317.025l4.38 5.09c.08.093.068.234-.026.313a.224.224 0 0 1-.146.053Z" stroke-linejoin="round" stroke-linecap="round" stroke="#fff" fill="transparent"/></g></g></svg>