<svg xmlns="http://www.w3.org/2000/svg" width="13.95" height="18.1" viewBox="46.283 660.033 13.95 18.1"><path d="M60.094 678.061a.316.316 0 0 0 .06-.441l-5.79-7.603 5.615-1.423a.314.314 0 0 0 .084-.575l-13.288-7.93a.315.315 0 0 0-.465.353l4.086 14.964a.314.314 0 0 0 .577.073l2.89-5.08 5.79 7.602a.315.315 0 0 0 .441.06ZM47.122 661.03l11.967 7.141-5.341 1.352a.322.322 0 0 0-.111.054l-.002.001-.003.004a.306.306 0 0 0-.08.09v.002l-2.75 4.831-3.68-13.475Z" fill="#fff" fill-rule="evenodd" data-name="Path 57"/></svg>